<?xml version="1.0" encoding="UTF-8"?>
<svg version="1.1" xmlns="http://www.w3.org/2000/svg" width="491" height="362">
<path d="M0 0 C162.03 0 324.06 0 491 0 C491 119.46 491 238.92 491 362 C328.97 362 166.94 362 0 362 C0 242.54 0 123.08 0 0 Z " fill="#F9F3EB" transform="translate(0,0)"/>
<path d="M0 0 C1.11375 0.144375 2.2275 0.28875 3.375 0.4375 C5.60157112 3.77735668 5.65683673 5.35812029 5.03955078 9.25634766 C3.78216451 13.38327233 1.05265655 16.36773508 -1.6875 19.625 C-2.96110889 21.19802688 -4.23318015 22.77229967 -5.50390625 24.34765625 C-6.5096167 25.58153076 -6.5096167 25.58153076 -7.53564453 26.84033203 C-11.15818464 31.34332124 -14.63561232 35.95608398 -18.125 40.5625 C-19.11125366 41.85837036 -19.11125366 41.85837036 -20.11743164 43.18041992 C-21.36757622 44.82319824 -22.61377063 46.4689922 -23.85546875 48.11816406 C-25.02279381 49.64818449 -26.2126911 51.16127792 -27.42578125 52.65527344 C-27.97621094 53.34395508 -28.52664063 54.03263672 -29.09375 54.7421875 C-29.58294922 55.33757324 -30.07214844 55.93295898 -30.57617188 56.54638672 C-31.97286866 59.06473245 -32.00580621 60.5926536 -31.625 63.4375 C-27.81318908 70.45086036 -21.69890542 75.01356369 -15.25 79.4375 C1.22254917 91.13259833 1.22254917 91.13259833 4.375 97.4375 C4.48421732 100.45690078 4.53234129 103.453586 4.53613281 106.47363281 C4.54109772 107.41038345 4.54606262 108.34713409 4.55117798 109.31227112 C4.56582283 112.4217298 4.5726061 115.53113744 4.578125 118.640625 C4.58387533 120.79815676 4.58963308 122.9556885 4.59539795 125.11322021 C4.60591509 129.64270262 4.61175283 134.17216725 4.61523438 138.70166016 C4.62071511 144.50342555 4.64473127 150.30495579 4.67320633 156.10664749 C4.6918398 160.56592492 4.69703873 165.02514585 4.69857025 169.48445892 C4.70159661 171.62306756 4.70962454 173.7616752 4.72275543 175.90024567 C4.73982755 178.89494128 4.73793248 181.8890644 4.73144531 184.88378906 C4.7406601 185.76609695 4.74987488 186.64840485 4.7593689 187.55744934 C4.72527365 192.58699096 4.21315814 196.10125252 1.375 200.4375 C-2.99461006 203.33149211 -7.58134501 204.22615146 -12.6875 205 C-13.4619043 205.12366943 -14.23630859 205.24733887 -15.03417969 205.37475586 C-22.02985731 206.44442921 -29.05201121 207.11802429 -36.09936523 207.74072266 C-41.94665698 208.25945567 -47.71949502 208.98847895 -53.5234375 209.875 C-59.28663892 210.7073619 -65.08579306 211.25755857 -70.875 211.875 C-78.70752474 212.71710341 -86.49035398 213.63462826 -94.25 215 C-104.92827544 216.87777551 -115.65336527 218.04356713 -126.4375 219.12109375 C-139.17439011 220.39847559 -151.84716662 221.75993044 -164.48828125 223.7890625 C-184.82211002 227.03915142 -184.82211002 227.03915142 -190.6875 223.6875 C-194.32575006 219.46243541 -194.87473711 216.4972604 -194.86791992 210.92260742 C-194.86981827 210.27621811 -194.87171661 209.6298288 -194.87367249 208.96385193 C-194.87737848 206.82343429 -194.86665681 204.68335644 -194.85546875 202.54296875 C-194.85427396 201.03436828 -194.85382442 199.52576706 -194.8540802 198.01716614 C-194.85251426 194.84204491 -194.84423267 191.66703621 -194.83081055 188.49194336 C-194.81409351 184.49376778 -194.81013504 180.49571698 -194.81054497 176.49751091 C-194.81055173 168.16525487 -194.76306538 159.83457288 -194.66741943 151.50286865 C-194.63790535 148.91081783 -194.62163531 146.31992781 -194.61383057 143.7276001 C-194.60101724 140.52159254 -194.55134638 137.31863338 -194.48828125 134.11328125 C-194.49168015 133.21401413 -194.49507904 132.31474701 -194.49858093 131.38822937 C-194.33177055 125.84572102 -193.11206182 122.83005703 -189.2099762 118.84788513 C-187.2731374 117.12439638 -185.35341146 115.67667994 -183.11328125 114.3671875 C-182.28231934 113.86977051 -181.45135742 113.37235352 -180.59521484 112.85986328 C-179.71816895 112.3492334 -178.84112305 111.83860352 -177.9375 111.3125 C-170.63549081 106.93436956 -163.49598148 102.4157904 -156.5 97.5625 C-150.8762295 93.66916431 -145.24053526 89.84092665 -139.44140625 86.2109375 C-136.61935917 84.43394808 -133.82384928 82.62052742 -131.02978516 80.80004883 C-122.12026701 74.99794605 -113.12171455 69.34553655 -104.0871582 63.74023438 C-98.78975523 60.44662206 -93.54749134 57.09648724 -88.38476562 53.5949707 C-83.98337583 50.69999442 -79.76751009 51.11852434 -74.625 51.4375 C-72.270752 52.026062 -69.93529085 52.69490651 -67.625 53.4375 C-55.02561893 56.8209465 -55.02561893 56.8209465 -42.81640625 54.3984375 C-41.12984759 52.53510074 -39.92110208 50.59426829 -38.625 48.4375 C-37.5404149 46.82181413 -36.45537868 45.20642258 -35.36523438 43.59448242 C-34.07770644 41.6796648 -32.80980653 39.75277811 -31.54296875 37.82421875 C-28.25415688 32.84801368 -24.85388366 27.95169831 -21.4375 23.0625 C-20.86773437 22.24305908 -20.29796875 21.42361816 -19.7109375 20.5793457 C-5.78860507 0.69862475 -5.78860507 0.69862475 0 0 Z " fill="#E49D5D" transform="translate(323.625,28.5625)"/>
<path d="M0 0 C5.12457413 3.20862975 8.43950104 8.94350312 10.3125 14.5625 C11.05386488 21.40493321 10.43129998 26.92943532 6.3125 32.5625 C-1.49639894 41.08657037 -10.60359746 42.23372685 -21.625 43.625 C-30.81486567 44.70058477 -30.81486567 44.70058477 -39.85546875 46.58984375 C-44.88317423 47.86598918 -49.91785554 48.44972167 -55.0625 49.0625 C-60.66802647 49.73545898 -66.21840711 50.41867257 -71.7421875 51.6015625 C-76.95972188 52.6876403 -82.12184186 53.14517727 -87.4375 53.4375 C-88.34371094 53.5096875 -89.24992187 53.581875 -90.18359375 53.65625 C-96.05160727 53.98177484 -98.93670178 53.33184589 -103.6875 49.5625 C-110.17994291 47.30508196 -118.67986532 50.7222605 -124.6875 53.5625 C-128.36145139 56.48166682 -130.94719294 59.77936995 -133.6875 63.5625 C-134.90288016 64.94970105 -136.13131156 66.32562087 -137.375 67.6875 C-140.69533569 71.4888189 -143.72319447 75.47979348 -146.6875 79.5625 C-144.58648799 83.37945107 -142.24590054 86.21926994 -139.125 89.25 C-138.24585938 90.11367188 -137.36671875 90.97734375 -136.4609375 91.8671875 C-135.54570312 92.75664062 -134.63046875 93.64609375 -133.6875 94.5625 C-131.87030066 96.32851062 -130.05762003 98.0991856 -128.25 99.875 C-127.44691406 100.65488281 -126.64382813 101.43476563 -125.81640625 102.23828125 C-121.20511302 107.2726289 -120.02186424 111.11632019 -120.203125 117.83203125 C-120.97758847 122.19775678 -123.16984549 124.94524296 -126.6875 127.5625 C-131.44713223 130.08809112 -136.05211722 129.84501633 -141.30157471 129.82319641 C-142.27546575 129.82702196 -143.2493568 129.83084751 -144.2527597 129.83478898 C-147.51914716 129.8451153 -150.78535872 129.84112745 -154.05175781 129.8371582 C-156.39254418 129.84150494 -158.73332912 129.84668796 -161.07411194 129.85264587 C-167.43580351 129.86605296 -173.79743573 129.8666125 -180.15913868 129.86408257 C-186.14138887 129.86287857 -192.12363072 129.8690891 -198.10587761 129.87451603 C-210.68137246 129.88539219 -223.25684051 129.88322908 -235.83233687 129.87713119 C-247.32669008 129.87196537 -258.82095846 129.88320844 -270.31529489 129.90222941 C-282.12526427 129.92162236 -293.93519354 129.92986104 -305.74517894 129.92610615 C-312.37245414 129.92419588 -318.99966626 129.92693001 -325.62693024 129.94082069 C-331.86169515 129.9533991 -338.09629047 129.9514546 -344.33105278 129.93840981 C-346.61710861 129.93604431 -348.90317637 129.93877772 -351.18921852 129.94703293 C-354.31483885 129.95750435 -357.43989061 129.94939603 -360.56549072 129.9367218 C-361.46580119 129.94409609 -362.36611166 129.95147037 -363.29370427 129.95906812 C-370.07806149 129.9013697 -376.51536662 128.88119069 -382.09765625 124.80078125 C-384.92875715 121.50117665 -387.11819863 118.89728378 -387.375 114.4375 C-386.28926399 108.31789704 -383.34354876 104.65916971 -378.57470703 100.76879883 C-374.86984557 98.40065905 -370.6675012 97.54099405 -366.4375 96.5 C-365.46458008 96.24814941 -364.49166016 95.99629883 -363.48925781 95.73681641 C-355.32805091 93.65052291 -347.12067307 91.78172061 -338.88183594 90.03027344 C-335.10488421 89.22512885 -331.33330709 88.39588988 -327.5625 87.5625 C-326.80799561 87.39588867 -326.05349121 87.22927734 -325.27612305 87.05761719 C-320.57954109 86.01088357 -315.91245772 84.87896227 -311.25 83.6875 C-299.46783724 80.67670519 -287.56386215 78.16959495 -275.6875 75.5625 C-273.11550592 74.99771773 -270.54359522 74.43259182 -267.97216797 73.86523438 C-265.93104415 73.4149403 -263.88937601 72.96711546 -261.84765625 72.51953125 C-258.65880066 71.80324234 -255.4946932 71.00811043 -252.328125 70.19921875 C-244.85598059 68.3187144 -237.33057663 66.70053784 -229.7980957 65.08300781 C-227.38897221 64.56550139 -224.9805766 64.04471056 -222.57226562 63.5234375 C-213.89981598 61.65184067 -205.21982098 59.8506111 -196.50708008 58.17578125 C-193.75348255 57.69836449 -193.75348255 57.69836449 -191.6875 56.5625 C-180.82727159 55.76259649 -173.337553 57.00127537 -164.78515625 63.734375 C-160.88113699 67.1367605 -157.27198306 70.82866348 -153.6875 74.5625 C-149.64137956 73.21379319 -148.0389607 70.47254832 -145.5625 67.1875 C-144.57606702 65.91103606 -143.5890804 64.63499979 -142.6015625 63.359375 C-141.20170083 61.53762461 -139.80363352 59.71456482 -138.40917969 57.88867188 C-132.97979461 50.81763899 -128.84578382 45.7717281 -119.98828125 43.6953125 C-119.31490723 43.53732178 -118.6415332 43.37933105 -117.94775391 43.21655273 C-116.58587244 42.9100091 -115.21644373 42.63497006 -113.84130859 42.39477539 C-111.64341687 41.988443 -111.64341687 41.988443 -108.6875 40.5625 C-107.22949704 37.21214048 -107.22949704 37.21214048 -106.6875 33.5625 C-104.54743609 27.85242039 -102.3353393 24.33507566 -96.6875 21.5625 C-94.1921932 20.75209761 -91.68540652 20.09272249 -89.140625 19.453125 C-84.9975287 18.3845436 -80.90850749 17.17267336 -76.8125 15.9375 C-75.98065186 15.68701904 -75.14880371 15.43653809 -74.29174805 15.1784668 C-66.47686044 12.81592604 -58.67497649 10.41123745 -50.875 8 C-49.61800293 7.61384521 -48.36100586 7.22769043 -47.06591797 6.82983398 C-39.52955651 4.50667865 -39.52955651 4.50667865 -32.09765625 1.875 C-22.23986918 -1.82824551 -10.17257249 -4.19327416 0 0 Z " fill="#E39B5A" transform="translate(440.6875,204.4375)"/>
<path d="M0 0 C2.50949032 2.05285838 4.75926671 4.28502677 7 6.625 C7.58394531 7.21023438 8.16789063 7.79546875 8.76953125 8.3984375 C13 12.71807304 13 12.71807304 13 15 C6.92653073 16.95066545 0.87202649 17.82398635 -5.4375 18.6875 C-16.89880743 20.32401706 -28.31516536 22.17954803 -39.72268677 24.15542603 C-41.52866038 24.46780045 -43.33503782 24.77784933 -45.14181519 25.08554077 C-47.6986032 25.5217827 -50.25374433 25.96662391 -52.80859375 26.4140625 C-53.96161987 26.60922707 -53.96161987 26.60922707 -55.13793945 26.80833435 C-58.71756182 27.44587636 -61.86717029 28.10334017 -65 30 C-65 30.99 -65 31.98 -65 33 C-53.05902606 32.57277374 -41.43866233 30.56120373 -29.67333984 28.60888672 C-23.61945914 27.6054055 -17.56394378 26.61345611 -11.5043335 25.6451416 C-9.5072945 25.32373291 -7.51167102 24.9935668 -5.51611328 24.66308594 C-1.68346698 24.050761 2.15371569 23.5190873 6 23 C6.6799704 22.88584747 7.3599408 22.77169495 8.06051636 22.65408325 C19.6992429 20.72568025 19.6992429 20.72568025 25.02514648 23.67553711 C27.7661503 26.06010219 30.08915315 28.54219997 32.4375 31.3125 C33.26314453 32.20646484 34.08878906 33.10042969 34.93945312 34.02148438 C41.90088467 41.63716423 41.90088467 41.63716423 42.25 46.4375 C42 50 42 50 40.89541626 51.69563293 C38.08371414 53.6305597 35.81744963 53.40118005 32.42333984 53.43237305 C31.74569014 53.44255337 31.06804043 53.45273369 30.36985588 53.4632225 C28.06680264 53.4938482 25.76417027 53.50274204 23.4609375 53.51171875 C21.7766604 53.52889953 20.09239493 53.54725194 18.40814209 53.56666565 C13.72271146 53.61612967 9.03734065 53.6454096 4.35172272 53.67036438 C1.3765087 53.68749132 -1.59862468 53.70961516 -4.5737915 53.73352051 C-18.97375063 53.84895871 -33.37371071 53.91945814 -47.77401388 53.97519338 C-52.85561804 53.99500431 -57.93720839 54.01730094 -63.01879883 54.04034424 C-83.49627686 54.1324145 -103.97367268 54.19566139 -124.45132124 54.23376256 C-130.23264765 54.24511412 -136.01392796 54.26340642 -141.79522705 54.28427124 C-148.92160591 54.30969241 -156.04790691 54.32378933 -163.17433262 54.32403928 C-166.86253108 54.32440468 -170.55055781 54.32959014 -174.23871613 54.3475666 C-178.28278614 54.36703541 -182.3264937 54.36286816 -186.37060547 54.35644531 C-187.5553779 54.36566356 -188.74015034 54.3748818 -189.96082497 54.38437939 C-196.9465868 54.34883061 -202.80335518 54.19664482 -208 49 C-208.6033872 45.12108227 -208.37915082 43.52591888 -206.0625 40.3125 C-199.96788249 35.71044188 -191.95464321 34.36357344 -184.625 32.5625 C-183.32091187 32.23946899 -183.32091187 32.23946899 -181.99047852 31.90991211 C-175.56859574 30.33887861 -169.12357323 28.92221178 -162.64794922 27.59228516 C-154.3186889 25.87939246 -146.02584704 24.00902749 -137.72875977 22.14746094 C-131.62400592 20.78417473 -125.51878806 19.48686593 -119.375 18.3125 C-114.93320647 17.45231122 -110.83777301 16.32493463 -106.59423828 14.78637695 C-103.38750374 13.81433743 -100.18604394 13.24391928 -96.88671875 12.65625 C-88.43385429 11.11674083 -80.03898889 9.34706642 -71.64404297 7.52050781 C-69.23862065 6.99752593 -66.83226374 6.47901664 -64.42578125 5.9609375 C-54.50923068 3.81740795 -44.61607463 1.61558453 -34.85546875 -1.16796875 C-23.10828651 -4.43315998 -10.85505414 -7.07401997 0 0 Z " fill="#F9F3EB" transform="translate(270,273)"/>
<path d="M0 0 C0 8.58 0 17.16 0 26 C-4.39105031 27.75642012 -6.54096599 28.25619912 -11.0625 28.4375 C-16.44706247 28.75071848 -21.69792207 29.35579678 -27.0234375 30.21484375 C-42.38215221 32.59780483 -57.81356688 34.47667842 -73.22973633 36.44384766 C-77.69452636 37.01361162 -82.15882171 37.58715335 -86.62298679 38.16179085 C-90.10344206 38.60939255 -93.58414501 39.05504356 -97.06492424 39.50011826 C-98.71102298 39.71082189 -100.35704801 39.92210227 -102.00299263 40.1340065 C-104.30456496 40.4300132 -106.60639765 40.7238429 -108.90844727 41.01611328 C-109.62131173 41.10689211 -110.3341762 41.19767094 -111.06864262 41.29120064 C-115.95826053 41.90175383 -120.84366557 42.36305009 -125.76109314 42.67477417 C-129.53522658 43.22300854 -132.92173394 44.76266377 -136 47 C-138.75174166 51.12761249 -139.08642784 55.47881019 -139.85546875 60.28320312 C-140.79726433 65.79726433 -140.79726433 65.79726433 -143 68 C-145.5 68.25 -145.5 68.25 -148 68 C-151.11886715 64.88113285 -150.35867882 60.71893656 -150.390625 56.49804688 C-150.50271721 53.31898716 -150.5872715 51.45960857 -152.75390625 49.046875 C-159.03710552 46.11835778 -166.76430537 48.14273137 -173.26171875 49.5625 C-176.53637062 50.08569687 -179.68946148 50.06531272 -183 50 C-183.14483042 45.56284145 -183.23391752 41.12628723 -183.3125 36.6875 C-183.3753418 34.79354492 -183.3753418 34.79354492 -183.43945312 32.86132812 C-183.45556641 31.65283203 -183.47167969 30.44433594 -183.48828125 29.19921875 C-183.51446533 28.08377686 -183.54064941 26.96833496 -183.56762695 25.8190918 C-183 23 -183 23 -180.78393555 21.17895508 C-169.43033077 16.37087322 -154.95176835 16.86339079 -142.76318359 15.75 C-133.82343929 14.92839722 -124.96584628 14.096284 -116.12548828 12.5 C-108.85898239 11.33754069 -101.5074658 10.73321383 -94.1875 10 C-90.90985614 9.66955722 -87.6325038 9.33642768 -84.35546875 9 C-83.55870728 8.91831573 -82.7619458 8.83663147 -81.94104004 8.75247192 C-75.70943832 8.10145807 -69.51215762 7.28201218 -63.30493164 6.42871094 C-58.75373493 5.8383363 -54.20029519 5.46728268 -49.625 5.125 C-38.01380338 4.19401307 -26.47262908 2.7799575 -14.91845703 1.32080078 C-14.22436234 1.23388977 -13.53026764 1.14697876 -12.81513977 1.05743408 C-10.91593124 0.81913566 -9.0171545 0.5774031 -7.1184082 0.33544922 C-4 0 -4 0 0 0 Z " fill="#F9F4EB" transform="translate(320,134)"/>
<path d="M0 0 C0.0580476 3.27075883 0.09361165 6.54138524 0.125 9.8125 C0.14175781 10.74126953 0.15851563 11.67003906 0.17578125 12.62695312 C0.18222656 13.51962891 0.18867188 14.41230469 0.1953125 15.33203125 C0.20578613 16.15421143 0.21625977 16.9763916 0.22705078 17.82348633 C0 20 0 20 -2 23 C-3.8269043 23.65795898 -3.8269043 23.65795898 -6.13671875 24.05859375 C-7.03438965 24.21440918 -7.93206055 24.37022461 -8.85693359 24.53076172 C-14.46577905 25.36812392 -20.08342218 26.11619443 -25.7121582 26.80493164 C-27.79900639 27.06084526 -29.88485832 27.32393734 -31.97070312 27.58789062 C-39.44727137 28.52103867 -46.90939347 29.28429269 -54.43237305 29.75170898 C-57.11672802 29.91477198 -57.11672802 29.91477198 -60 31 C-62.79905487 31.30351197 -65.59885555 31.50744074 -68.40625 31.71875 C-71.11146303 31.91931261 -71.11146303 31.91931261 -74 33 C-75.52668315 33.24634153 -77.05905799 33.45826388 -78.59375 33.6484375 C-79.52856201 33.76517822 -80.46337402 33.88191895 -81.42651367 34.00219727 C-82.9478894 34.18673462 -82.9478894 34.18673462 -84.5 34.375 C-85.55356689 34.50511475 -86.60713379 34.63522949 -87.69262695 34.76928711 C-96.9433337 35.89957453 -106.20480831 36.93026252 -115.47265625 37.90966797 C-121.99932528 38.61280086 -128.46572198 39.51577584 -134.94897461 40.54272461 C-139.18342638 41.17736718 -143.42543283 41.6023701 -147.6875 42 C-152.63359975 42.48218993 -157.46542272 42.98921622 -162.3125 44.125 C-168.40923037 45.48462483 -174.79381237 45.5672322 -181 45 C-183 43 -183 43 -183.22705078 40.84521484 C-183.21657715 39.97590332 -183.20610352 39.1065918 -183.1953125 38.2109375 C-183.18886719 37.26992187 -183.18242187 36.32890625 -183.17578125 35.359375 C-183.15902344 34.37453125 -183.14226562 33.3896875 -183.125 32.375 C-183.11597656 31.38242188 -183.10695312 30.38984375 -183.09765625 29.3671875 C-183.07404116 26.91121866 -183.04110799 24.45572832 -183 22 C-175.02416633 19.92573256 -166.97233734 19.16688917 -158.7946167 18.36837769 C-138.67623268 16.39572034 -118.62698083 14.00393472 -98.65454102 10.8581543 C-87.43161749 9.09484394 -76.16167523 7.85240243 -64.86987305 6.62988281 C-56.02787889 5.67189307 -47.19130732 4.67996162 -38.359375 3.6328125 C-37.3857753 3.51773346 -36.4121756 3.40265442 -35.40907288 3.28408813 C-31.55548768 2.82826382 -27.70195915 2.37214829 -23.84933472 1.90826416 C-21.17470251 1.58635996 -18.49952693 1.26935445 -15.82421875 0.953125 C-15.03404358 0.85645538 -14.24386841 0.75978577 -13.42974854 0.66018677 C-8.91691901 0.13145672 -4.54391873 -0.09180394 0 0 Z " fill="#F9F4EB" transform="translate(320,201)"/>
<path d="M0 0 C0.08681476 3.62484999 0.14032721 7.24943443 0.1875 10.875 C0.21263672 11.90753906 0.23777344 12.94007813 0.26367188 14.00390625 C0.27817383 15.48310547 0.27817383 15.48310547 0.29296875 16.9921875 C0.31653442 18.35899658 0.31653442 18.35899658 0.34057617 19.75341797 C0.22818604 20.49479004 0.1157959 21.23616211 0 22 C-3.40709854 24.27139902 -5.10061979 24.38633404 -9.1328125 24.7109375 C-10.39601318 24.81905762 -11.65921387 24.92717773 -12.96069336 25.03857422 C-13.63711884 25.09301697 -14.31354431 25.14745972 -15.01046753 25.20355225 C-18.65864374 25.49934889 -22.30386638 25.82771535 -25.94921875 26.15625 C-26.704272 26.22399628 -27.45932526 26.29174255 -28.23725891 26.36154175 C-35.82212359 27.05373787 -43.37914271 27.93668446 -50.9375 28.875 C-51.60362305 28.95747986 -52.26974609 29.03995972 -52.95605469 29.12493896 C-55.73804526 29.46994634 -58.5198678 29.81625645 -61.30142212 30.1647644 C-66.90109223 30.86611129 -72.50282888 31.54937637 -78.10546875 32.2265625 C-94.05716778 34.1563102 -110.0043127 36.10994313 -125.9375 38.1875 C-135.90184078 39.48587226 -145.86529208 40.7275451 -155.859375 41.7734375 C-158.27171444 42.0287581 -160.6826866 42.29540615 -163.09375 42.5625 C-164.81247664 42.75021406 -166.53122614 42.93771882 -168.25 43.125 C-169.03729492 43.21281738 -169.82458984 43.30063477 -170.63574219 43.39111328 C-171.37985352 43.47087402 -172.12396484 43.55063477 -172.890625 43.6328125 C-173.86563965 43.73940186 -173.86563965 43.73940186 -174.86035156 43.84814453 C-177.56723107 44.04025761 -180.28631172 44 -183 44 C-183 36.74 -183 29.48 -183 22 C-176.9051697 20.64559327 -171.56261309 19.65054398 -165.4375 19.375 C-164.71498047 19.33632812 -163.99246094 19.29765625 -163.24804688 19.2578125 C-161.49904125 19.16514995 -159.74955784 19.08157448 -158 19 C-157.85304687 20.44632813 -157.85304687 20.44632813 -157.703125 21.921875 C-157.55359375 23.18515625 -157.4040625 24.4484375 -157.25 25.75 C-157.11078125 27.00296875 -156.9715625 28.2559375 -156.828125 29.546875 C-155.90782184 33.38436553 -155.22881918 34.77227978 -152 37 C-147.94149791 37.80946741 -144.08042869 37.64192791 -140 37 C-135.67428015 34.0585105 -134.18158877 31.02175227 -133 26 C-132.89098724 24.62537572 -132.78701472 23.25034451 -132.6875 21.875 C-132 18 -132 18 -130.23046875 15.859375 C-125.2838398 13.01222218 -120.24389851 12.8747424 -114.625 12.375 C-112.40869933 12.15520159 -110.19255389 11.93383254 -107.9765625 11.7109375 C-106.8311499 11.59903076 -105.6857373 11.48712402 -104.50561523 11.37182617 C-101.01725997 11.00183069 -97.54934539 10.55206368 -94.07421875 10.07421875 C-87.71863818 9.20590725 -81.35573014 8.45500654 -74.98046875 7.74609375 C-74.02088257 7.6391217 -73.06129639 7.53214966 -72.07263184 7.42193604 C-68.09062885 6.97916911 -64.10840972 6.53846889 -60.12573242 6.10180664 C-57.18109572 5.77824876 -54.23701054 5.45001428 -51.29296875 5.12109375 C-50.38790085 5.02316025 -49.48283295 4.92522675 -48.55033875 4.82432556 C-47.7179921 4.73075272 -46.88564545 4.63717987 -46.02807617 4.54077148 C-45.29610519 4.46020004 -44.56413422 4.3796286 -43.8099823 4.2966156 C-41.90564301 4.076438 -41.90564301 4.076438 -40 3 C-38.65758474 2.80478858 -37.3081137 2.65665701 -35.95703125 2.53515625 C-35.13726807 2.45821533 -34.31750488 2.38127441 -33.47290039 2.30200195 C-32.59496826 2.22296631 -31.71703613 2.14393066 -30.8125 2.0625 C-23.18493793 1.35074063 -15.63791961 0.44544226 -8.06640625 -0.73046875 C-5.07093618 -0.99376485 -2.90631226 -0.65073115 0 0 Z " fill="#F9F4EC" transform="translate(320,170)"/>
<path d="M0 0 C-0.56673109 6.06522844 -4.34565073 10.81975717 -7.49414062 15.84960938 C-7.94080078 16.58115234 -8.38746094 17.31269531 -8.84765625 18.06640625 C-9.26023682 18.72584229 -9.67281738 19.38527832 -10.09790039 20.06469727 C-11.28165655 22.24837605 -11.28165655 22.24837605 -11 26 C-7.10030531 25.70498764 -5.36977121 23.51778798 -2.88476562 20.6953125 C-2.40716797 20.13585937 -1.92957031 19.57640625 -1.4375 19 C3.61591276 13.12802908 3.61591276 13.12802908 7 12 C6.60484184 17.13705613 4.71205811 20.56693167 2.05859375 24.8515625 C0.70534203 27.19883445 0.70534203 27.19883445 1 31 C5.24024288 29.41242091 7.73939096 26.20039437 10.625 22.875 C12.37592994 20.86143057 14.14665835 18.92394514 16 17 C16.66 17 17.32 17 18 17 C17.34309381 20.78239671 16.279869 24.21841526 14.9375 27.8125 C14.39416016 29.27623047 14.39416016 29.27623047 13.83984375 30.76953125 C13.42412109 31.87361328 13.42412109 31.87361328 13 33 C16.06950678 32.95913379 18.23612542 32.74465289 20.49414062 30.54345703 C21.99527919 28.59618665 23.3861701 26.60824485 24.75 24.5625 C25.70203541 23.18804673 26.65511592 21.8143166 27.609375 20.44140625 C28.2276416 19.52403687 28.2276416 19.52403687 28.85839844 18.58813477 C30 17 30 17 32 15 C36.34739105 15.55054056 39.48966156 18.23587544 42.9375 20.75 C43.84918945 21.39582031 43.84918945 21.39582031 44.77929688 22.0546875 C48.51975446 24.75007657 51.90811271 27.55022822 55 31 C55 31.66 55 32.32 55 33 C54.04971924 33.10546143 53.09943848 33.21092285 52.12036133 33.31958008 C29.07122293 35.8372675 29.07122293 35.8372675 6.09887695 38.96020508 C-8.41991411 41.15735277 -23.03113162 42.70889773 -37.62353516 44.32543945 C-39.9211745 44.58044279 -42.21841718 44.83879838 -44.515625 45.09765625 C-45.55774139 45.21174583 -45.55774139 45.21174583 -46.62091064 45.32814026 C-49.8241769 45.69129345 -52.88613202 46.17395884 -56 47 C-57.32736962 47.18149066 -58.65875697 47.33518263 -59.9921875 47.46484375 C-60.76892822 47.54162354 -61.54566895 47.61840332 -62.34594727 47.69750977 C-63.18053467 47.77670654 -64.01512207 47.85590332 -64.875 47.9375 C-66.18392212 48.06499634 -66.18392212 48.06499634 -67.51928711 48.19506836 C-76.79306613 49.09157483 -86.07220271 49.93125588 -95.35205078 50.76220703 C-99.90173218 51.17078067 -104.45085073 51.58554979 -109 52 C-105.90791446 48.59794989 -102.51996137 46.3757166 -98.5625 44.125 C-92.06744963 40.33425685 -85.7992876 36.26316654 -79.5625 32.0625 C-72.02641345 26.99258422 -64.42285396 22.07493067 -56.69921875 17.296875 C-53.06595388 15.04902413 -49.46595487 12.75220603 -45.875 10.4375 C-45.31119629 10.07479004 -44.74739258 9.71208008 -44.16650391 9.33837891 C-41.16723148 7.40627945 -38.17615891 5.46226827 -35.19140625 3.5078125 C-34.56314941 3.09861572 -33.93489258 2.68941895 -33.28759766 2.26782227 C-32.09084725 1.48814996 -30.89634629 0.70500919 -29.70458984 -0.08227539 C-19.42093659 -6.76771772 -10.63355188 -5.64497199 0 0 Z " fill="#F9F4EC" transform="translate(261,93)"/>
<path d="M0 0 C4.09992041 2.82438962 6.26476716 6.0926427 7.1953125 10.92578125 C7.45036853 15.30424318 6.4189192 18.5628223 4.37109375 22.39453125 C-0.12550367 26.84605 -7.20344163 27.79437685 -13.1875 28.9375 C-14.05125244 29.10701172 -14.91500488 29.27652344 -15.80493164 29.45117188 C-23.34254382 30.88010309 -30.91410861 31.86404498 -38.52709961 32.79077148 C-45.1583729 33.6168221 -51.69459826 34.70584143 -58.25 36 C-87.04542619 41.68309656 -87.04542619 41.68309656 -92.3671875 38.7265625 C-94.1875 36.9375 -94.1875 36.9375 -94.71875 34.59765625 C-94.7084375 33.74042969 -94.698125 32.88320312 -94.6875 32 C-94.6978125 31.14535156 -94.708125 30.29070312 -94.71875 29.41015625 C-94.01641301 26.14119068 -92.70832926 25.09666969 -90.1875 22.9375 C-87.80004883 21.92016602 -87.80004883 21.92016602 -85.14453125 21.19140625 C-84.16194336 20.91417725 -83.17935547 20.63694824 -82.16699219 20.35131836 C-81.12188477 20.0703833 -80.07677734 19.78944824 -79 19.5 C-76.81375289 18.88819659 -74.62755517 18.27621668 -72.44140625 17.6640625 C-71.37035645 17.36918945 -70.29930664 17.07431641 -69.19580078 16.77050781 C-65.2633123 15.68158956 -61.34919292 14.53599389 -57.4375 13.375 C-56.77065186 13.17841797 -56.10380371 12.98183594 -55.41674805 12.77929688 C-53.33983881 12.16701875 -51.26355657 11.55266287 -49.1875 10.9375 C-48.40987305 10.70708008 -47.63224609 10.47666016 -46.83105469 10.23925781 C-44.32420455 9.4950522 -41.81819838 8.74807388 -39.3125 8 C-38.48242432 7.75290283 -37.65234863 7.50580566 -36.79711914 7.2512207 C-32.49319077 5.96141831 -28.20887105 4.62871794 -23.94140625 3.22265625 C-23.0911084 2.94478271 -22.24081055 2.66690918 -21.36474609 2.38061523 C-19.75402193 1.85134119 -18.14603261 1.31363825 -16.54150391 0.76586914 C-10.8163022 -1.1108018 -5.87608709 -1.9586957 0 0 Z " fill="#F9F3EB" transform="translate(436.1875,211.0625)"/>
<path d="M0 0 C5.61 0 11.22 0 17 0 C17 0.33 17 0.66 17 1 C15.906875 1.0825 14.81375 1.165 13.6875 1.25 C9.96294378 1.57100616 9.96294378 1.57100616 8.57347488 4.00008488 C7 6 7 6 4.82700729 6.60861111 C-5.5113318 7.14676344 -15.84136434 7.09000576 -26.19042969 7.02172852 C-28.32024935 7.01157008 -30.45007128 7.00187814 -32.57989502 6.99261475 C-38.3310986 6.96629033 -44.08224867 6.9334799 -49.83341122 6.89946485 C-55.85516957 6.86496571 -61.87695639 6.83648728 -67.89874268 6.80735779 C-79.2881429 6.7513548 -90.67750747 6.68997279 -102.06686902 6.62663645 C-115.0390683 6.55476146 -128.01129603 6.48891618 -140.98352957 6.42356598 C-167.65572329 6.28906503 -194.3278726 6.14702896 -221 6 C-219.39047891 4.06278508 -218.48989028 3.09309486 -215.97528458 2.61523914 C-214.80394785 2.6083257 -214.80394785 2.6083257 -213.60894775 2.60127258 C-212.70737348 2.58873412 -211.8057992 2.57619566 -210.87690449 2.56327724 C-209.88659827 2.56471265 -208.89629206 2.56614805 -207.87597656 2.56762695 C-206.82664287 2.55743814 -205.77730917 2.54724932 -204.69617748 2.53675175 C-201.17760717 2.50630808 -197.65931072 2.49728027 -194.140625 2.48828125 C-191.64395807 2.47132543 -189.14729935 2.45312089 -186.65065002 2.43374634 C-180.61142059 2.39041582 -174.5722704 2.36107357 -168.53294057 2.33830976 C-163.65915213 2.31950419 -158.7854421 2.29386344 -153.91171265 2.26345825 C-152.87657617 2.25700439 -152.87657617 2.25700439 -151.82052785 2.25042015 C-150.42296364 2.24168356 -149.02539949 2.23293805 -147.62783539 2.22418368 C-98.4192963 1.91975986 -49.20922985 1.88083885 0 2 C0 1.34 0 0.68 0 0 Z " fill="#E6A163" transform="translate(291,326)"/>
<path d="M0 0 C0.33 0 0.66 0 1 0 C1.00586624 1.12895187 1.01173248 2.25790375 1.01777649 3.42106628 C1.07498486 14.05942171 1.14773673 24.69757234 1.23571491 35.33571911 C1.28044589 40.80493383 1.31969612 46.27407358 1.34643555 51.7434082 C1.37244113 57.0214446 1.41282435 62.29919294 1.46318626 67.57705116 C1.47987351 69.59083791 1.4913762 71.60467451 1.49761391 73.61852074 C1.50723468 76.43894029 1.53526997 79.25861979 1.56762695 82.07885742 C1.56619186 82.91179825 1.56475677 83.74473907 1.5632782 84.60292053 C1.6395756 89.30412728 2.19269335 92.05974345 5 96 C5 96.66 5 97.32 5 98 C2.36340409 97.03324817 1.22095663 96.41504733 -0.1184082 93.89916992 C-1.20520031 90.3251859 -1.26754777 86.9974468 -1.23046875 83.30078125 C-1.23037308 82.5326712 -1.2302774 81.76456116 -1.23017883 80.97317505 C-1.22642137 78.41946578 -1.20734894 75.86613126 -1.1875 73.3125 C-1.18059026 71.52026517 -1.17408828 69.72802872 -1.16796875 67.93579102 C-1.06038225 45.2873482 -0.52763116 22.64183181 0 0 Z " fill="#FBFBFA" transform="translate(128,155)"/>
<path d="M0 0 C0 0.66 0 1.32 0 2 C0.99 2.33 1.98 2.66 3 3 C3 3.99 3 4.98 3 6 C-2.94 6.495 -2.94 6.495 -9 7 C-8.67 7.99 -8.34 8.98 -8 10 C-11.75 12 -11.75 12 -14 12 C-14.33 9.36 -14.66 6.72 -15 4 C-9.77228537 0.95842058 -6.07328688 -0.50610724 0 0 Z " fill="#E5A163" transform="translate(199,176)"/>
<path d="M0 0 C-2.42941347 2.42941347 -3.4528778 2.38945603 -6.8046875 2.78125 C-7.77535156 2.90008545 -8.74601562 3.0189209 -9.74609375 3.14135742 C-10.77863281 3.25970947 -11.81117188 3.37806152 -12.875 3.5 C-14.9767724 3.75478483 -17.07833839 4.01127858 -19.1796875 4.26953125 C-20.18870117 4.39279785 -21.19771484 4.51606445 -22.23730469 4.64306641 C-25.50970874 5.06585314 -28.75298863 5.60204143 -32 6.1875 C-36.08314722 6.90981113 -39.85885023 7.18823408 -44 7 C-41.29429853 4.29429853 -38.54253027 4.23860962 -34.90234375 3.7109375 C-34.19404922 3.60278717 -33.4857547 3.49463684 -32.7559967 3.38320923 C-31.25272915 3.15574756 -29.74883125 2.93241946 -28.24438477 2.71289062 C-25.96903357 2.37961874 -23.69649623 2.03073598 -21.42382812 1.6796875 C-14.2529103 0.59615586 -7.27270842 -0.3136923 0 0 Z " fill="#F9FAF6" transform="translate(414,240)"/>
<path d="M0 0 C0.33 0.66 0.66 1.32 1 2 C0.0625 4.625 0.0625 4.625 -1 7 C0.32 6.67 1.64 6.34 3 6 C2.68232368 11.40049736 -0.19996327 13.52337065 -4 17 C-4.99 16.67 -5.98 16.34 -7 16 C-6.66830805 9.69785303 -3.32676012 5.14783064 0 0 Z " fill="#E39754" transform="translate(268,108)"/>
<path d="M0 0 C6.93 0.495 6.93 0.495 14 1 C13.67 2.32 13.34 3.64 13 5 C13.33 5.66 13.66 6.32 14 7 C9.71 6.67 5.42 6.34 1 6 C1.33 4.35 1.66 2.7 2 1 C1.34 0.67 0.68 0.34 0 0 Z " fill="#E5A265" transform="translate(235,234)"/>
<path d="M0 0 C0 8.58 0 17.16 0 26 C-0.99 25.67 -1.98 25.34 -3 25 C-2.67 17.41 -2.34 9.82 -2 2 C-4.31 2 -6.62 2 -9 2 C-9 1.67 -9 1.34 -9 1 C-5.846632 0.29925156 -3.27275026 0 0 0 Z " fill="#FAFCFA" transform="translate(320,134)"/>
<path d="M0 0 C-3.37431106 3.37431106 -8.12698095 3.6148142 -12.6875 4.625 C-14.15993164 4.96917969 -14.15993164 4.96917969 -15.66210938 5.3203125 C-20.89323305 6.49915727 -25.63835664 7.28495447 -31 7 C-30.67 6.34 -30.34 5.68 -30 5 C-27.77856445 4.31396484 -27.77856445 4.31396484 -24.86328125 3.7109375 C-23.28450195 3.38222656 -23.28450195 3.38222656 -21.67382812 3.046875 C-20.56458984 2.82515625 -19.45535156 2.6034375 -18.3125 2.375 C-17.22259766 2.14554687 -16.13269531 1.91609375 -15.00976562 1.6796875 C-9.9000917 0.63473897 -5.23452702 -0.12695048 0 0 Z " fill="#F9F9F6" transform="translate(224,266)"/>
<path d="M0 0 C-3.76170229 2.33755913 -7.75381479 2.66398062 -12.0625 3.125 C-12.8145874 3.20991699 -13.5666748 3.29483398 -14.34155273 3.38232422 C-20.23855784 4.00903469 -26.07012966 4.23053492 -32 4 C-23.27152959 -1.18048867 -9.7777142 -0.29679402 0 0 Z " fill="#E09550" transform="translate(270,168)"/>
<path d="M0 0 C1.98 0 3.96 0 6 0 C5.67 1.65 5.34 3.3 5 5 C7.64 5 10.28 5 13 5 C13 5.33 13 5.66 13 6 C5.58569409 7.83717315 -1.37685526 8.23576736 -9 8 C-9 7.67 -9 7.34 -9 7 C-5.04 6.34 -1.08 5.68 3 5 C3.22609337 2.87635519 3.22609337 2.87635519 1.5 1.375 C1.005 0.92125 0.51 0.4675 0 0 Z " fill="#E29551" transform="translate(231,235)"/>
<path d="M0 0 C0.825 0.639375 1.65 1.27875 2.5 1.9375 C8.53003713 5.48531811 16.20307004 4.8368084 23 5 C23 5.33 23 5.66 23 6 C14.19023981 7.93307688 7.35347735 7.99343581 -0.41796875 3.09375 C-0.94003906 2.7328125 -1.46210938 2.371875 -2 2 C-1.34 1.34 -0.68 0.68 0 0 Z " fill="#F9FAF8" transform="translate(336,253)"/>
<path d="M0 0 C0 0.33 0 0.66 0 1 C-9.07449185 2.91281635 -17.66824711 4.5338079 -27 4 C-23.29604822 1.72211751 -19.42014722 1.35180791 -15.1875 0.875 C-14.50107422 0.78863281 -13.81464844 0.70226562 -13.10742188 0.61328125 C-8.70806461 0.08885456 -4.42952243 -0.08106316 0 0 Z " fill="#FAFAF6" transform="translate(313,160)"/>
<path d="M0 0 C2.31 0 4.62 0 7 0 C7 0.66 7 1.32 7 2 C8.32 2.33 9.64 2.66 11 3 C10.01 3 9.02 3 8 3 C8.33 3.99 8.66 4.98 9 6 C6.69 6.33 4.38 6.66 2 7 C1.34 4.69 0.68 2.38 0 0 Z " fill="#E6A366" transform="translate(191,140)"/>
<path d="M0 0 C1.2065625 0.0309375 1.2065625 0.0309375 2.4375 0.0625 C3.0975 1.3825 3.7575 2.7025 4.4375 4.0625 C-2.84821429 7.49107143 -2.84821429 7.49107143 -7.5625 7.0625 C-6.9025 6.629375 -6.2425 6.19625 -5.5625 5.75 C-4.5725 4.9146875 -4.5725 4.9146875 -3.5625 4.0625 C-3.5625 3.0725 -3.5625 2.0825 -3.5625 1.0625 C-2.5625 0.0625 -2.5625 0.0625 0 0 Z " fill="#E5A366" transform="translate(166.5625,244.9375)"/>
<path d="M0 0 C0.33 0.99 0.66 1.98 1 3 C0.67 3.66 0.34 4.32 0 5 C-0.41507174 11.31645868 -0.41507174 11.31645868 2 17 C1.01 17 0.02 17 -1 17 C-3.13749925 13.79375113 -3.29574999 12.77541897 -3.3125 9.0625 C-3.32925781 8.20785156 -3.34601562 7.35320312 -3.36328125 6.47265625 C-2.93504169 3.5578644 -1.92290461 2.18673321 0 0 Z " fill="#F9FAF7" transform="translate(55,310)"/>
<path d="M0 0 C0 0.33 0 0.66 0 1 C-7.65074958 2.55123466 -15.21191437 3.48351265 -23 4 C-22.67 3.34 -22.34 2.68 -22 2 C-14.79314841 0.07658985 -7.41932368 -0.29545979 0 0 Z " fill="#FAF9F6" transform="translate(174,251)"/>
<path d="M0 0 C-4.02323652 4.02323652 -10.56883247 3.05665178 -15.9375 3.0625 C-17.95837779 3.0465517 -19.97924434 3.02734857 -22 3 C-22 2.67 -22 2.34 -22 2 C-14.58856436 0.57374434 -7.55137932 -0.30071865 0 0 Z " fill="#E0934E" transform="translate(190,209)"/>
<path d="M0 0 C0.66 0.99 1.32 1.98 2 3 C1.34 3.66 0.68 4.32 0 5 C0.99 5.66 1.98 6.32 3 7 C-9.66970387 8.33257403 -9.66970387 8.33257403 -15 7 C-15 6.67 -15 6.34 -15 6 C-14.33613281 5.98582031 -13.67226562 5.97164062 -12.98828125 5.95703125 C-6.82744805 5.72950819 -6.82744805 5.72950819 -1.875 2.4375 C-0.946875 1.2309375 -0.946875 1.2309375 0 0 Z " fill="#F7EDE0" transform="translate(185,202)"/>
<path d="M0 0 C0 0.33 0 0.66 0 1 C-14.59681093 3.29612756 -14.59681093 3.29612756 -22 3 C-22 2.67 -22 2.34 -22 2 C-14.30600061 -0.33992765 -7.95988402 -1.46166012 0 0 Z " fill="#F7EDE0" transform="translate(219,137)"/>
<path d="M0 0 C1.66949355 0.03767954 3.33759288 0.15428796 5 0.3125 C5.9075 0.39113281 6.815 0.46976562 7.75 0.55078125 C8.4925 0.69902344 9.235 0.84726562 10 1 C10.33 1.66 10.66 2.32 11 3 C8.11788698 3.96070434 6.30149956 4.10581883 3.3125 4.0625 C2.10013672 4.04896484 2.10013672 4.04896484 0.86328125 4.03515625 C-0.05904297 4.01775391 -0.05904297 4.01775391 -1 4 C-1 1 -1 1 0 0 Z " fill="#E5A062" transform="translate(206,301)"/>
<path d="M0 0 C-2.57516622 2.63746863 -4.54331396 3.21887499 -8.109375 3.29296875 C-9.65652231 3.27313353 -11.20353396 3.2375101 -12.75 3.1875 C-13.54277344 3.17396484 -14.33554687 3.16042969 -15.15234375 3.14648438 C-17.10185564 3.11125223 -19.05101626 3.05744821 -21 3 C-15.06281054 -0.9581263 -6.95604187 -0.12881559 0 0 Z " fill="#DF924C" transform="translate(284,130)"/>
<path d="M0 0 C2 0 2 0 4.25 2.0625 C7.31390251 5.24530022 10.16219029 8.61608258 13 12 C12.67 12.66 12.34 13.32 12 14 C11.30132812 13.28972656 10.60265625 12.57945312 9.8828125 11.84765625 C8.97273438 10.92855469 8.06265625 10.00945312 7.125 9.0625 C6.22007812 8.14597656 5.31515625 7.22945313 4.3828125 6.28515625 C2.22317745 3.98812373 2.22317745 3.98812373 0 3 C0 2.01 0 1.02 0 0 Z " fill="#F9FAF7" transform="translate(273,264)"/>
<path d="M0 0 C0.66 0.33 1.32 0.66 2 1 C1.06414062 1.30550781 1.06414062 1.30550781 0.109375 1.6171875 C-2.94145325 3.61717491 -3.00523846 5.62462074 -3.75 9.125 C-3.99234375 10.22070312 -4.2346875 11.31640625 -4.484375 12.4453125 C-4.65453125 13.28835937 -4.8246875 14.13140625 -5 15 C-5.33 15 -5.66 15 -6 15 C-6.42004622 8.90932974 -6.0566405 5.89183119 -2 1 C-1.34 0.67 -0.68 0.34 0 0 Z " fill="#E1944F" transform="translate(341,228)"/>
<path d="M0 0 C-0.66 0.66 -1.32 1.32 -2 2 C-5.0390625 1.9765625 -5.0390625 1.9765625 -8.625 1.625 C-9.81351563 1.51414063 -11.00203125 1.40328125 -12.2265625 1.2890625 C-13.14179688 1.19367188 -14.05703125 1.09828125 -15 1 C-15 0.67 -15 0.34 -15 0 C-13.25093341 -0.19601608 -11.50068154 -0.38147403 -9.75 -0.5625 C-8.77546875 -0.66691406 -7.8009375 -0.77132812 -6.796875 -0.87890625 C-4.2368648 -0.98974468 -2.41851841 -0.77738092 0 0 Z " fill="#F7EDE0" transform="translate(223,182)"/>
<path d="M0 0 C0.90105469 0.00902344 1.80210937 0.01804688 2.73046875 0.02734375 C3.41753906 0.03894531 4.10460937 0.05054688 4.8125 0.0625 C1.52758627 2.25244248 -0.01845639 2.41527339 -3.875 2.6875 C-5.36580078 2.79964844 -5.36580078 2.79964844 -6.88671875 2.9140625 C-8.02560547 2.98753906 -8.02560547 2.98753906 -9.1875 3.0625 C-7.31499103 -0.68251794 -3.72136574 -0.04832943 0 0 Z " fill="#F9FAF7" transform="translate(266.1875,175.9375)"/>
<path d="M0 0 C4.75 0.875 4.75 0.875 7 2 C7 2.99 7 3.98 7 5 C5.02 5.33 3.04 5.66 1 6 C1.20625 5.38125 1.4125 4.7625 1.625 4.125 C1.74875 3.42375 1.8725 2.7225 2 2 C1.34 1.34 0.68 0.68 0 0 Z " fill="#E6A569" transform="translate(324,247)"/>
<path d="M0 0 C0.66 0 1.32 0 2 0 C2.05395478 1.62463842 2.09277195 3.24978541 2.125 4.875 C2.14820313 5.77992188 2.17140625 6.68484375 2.1953125 7.6171875 C2 10 2 10 0 12 C-0.19401633 10.18818595 -0.38004375 8.37551468 -0.5625 6.5625 C-0.66691406 5.55316406 -0.77132812 4.54382813 -0.87890625 3.50390625 C-0.91886719 2.67761719 -0.95882812 1.85132813 -1 1 C-0.67 0.67 -0.34 0.34 0 0 Z " fill="#F9FCF9" transform="translate(160,189)"/>
<path d="M0 0 C0 0.66 0 1.32 0 2 C-4.29 2 -8.58 2 -13 2 C-13 1.67 -13 1.34 -13 1 C-11.39796533 0.63631108 -9.79325797 0.28438048 -8.1875 -0.0625 C-7.29417969 -0.25972656 -6.40085937 -0.45695312 -5.48046875 -0.66015625 C-3 -1 -3 -1 0 0 Z " fill="#F9FAF7" transform="translate(316,124)"/>
<path d="M0 0 C0.33 0.66 0.66 1.32 1 2 C0.525625 2.5775 0.05125 3.155 -0.4375 3.75 C-1.9484867 5.92582084 -2.54036151 7.42602448 -3 10 C-3.99 10 -4.98 10 -6 10 C-4.6302836 6.00499382 -2.74277578 3.19990508 0 0 Z " fill="#E6A468" transform="translate(318,47)"/>
<path d="M0 0 C0 0.66 0 1.32 0 2 C-4.65537393 2.83796731 -8.37078475 3.0161692 -13 2 C-13 1.67 -13 1.34 -13 1 C-8.62426048 0.40667939 -4.42471556 -0.13827236 0 0 Z " fill="#F6E8D8" transform="translate(281,296)"/>
<path d="M0 0 C0.99 0 1.98 0 3 0 C2.67 4.29 2.34 8.58 2 13 C1.67 13 1.34 13 1 13 C1 9.37 1 5.74 1 2 C0.34 1.67 -0.32 1.34 -1 1 C-0.67 0.67 -0.34 0.34 0 0 Z " fill="#FAFDFA" transform="translate(317,201)"/>
<path d="M0 0 C0 0.66 0 1.32 0 2 C-1.28745036 2.38922918 -2.58019597 2.76098036 -3.875 3.125 C-4.59429687 3.33382812 -5.31359375 3.54265625 -6.0546875 3.7578125 C-6.69664062 3.83773437 -7.33859375 3.91765625 -8 4 C-8.66 3.34 -9.32 2.68 -10 2 C-3.375 0 -3.375 0 0 0 Z " fill="#F7EDE1" transform="translate(363,230)"/>
<path d="M0 0 C-1.4375 1.5625 -1.4375 1.5625 -4 3 C-7.05380927 2.96846324 -9.99653222 2.53266629 -13 2 C-13 1.67 -13 1.34 -13 1 C-8.59085217 -0.10228696 -4.51617599 -0.07654536 0 0 Z " fill="#F6E4D0" transform="translate(162,152)"/>
<path d="M0 0 C0.33 0.66 0.66 1.32 1 2 C0.67 2.99 0.34 3.98 0 5 C1.32 4.34 2.64 3.68 4 3 C3.34 4.32 2.68 5.64 2 7 C0.68 6.67 -0.64 6.34 -2 6 C-1.125 1.125 -1.125 1.125 0 0 Z " fill="#E08F48" transform="translate(251,113)"/>
<path d="M0 0 C1.485 0.99 1.485 0.99 3 2 C3.29296875 4.6015625 3.29296875 4.6015625 3.1875 7.625 C3.16042969 8.62789063 3.13335937 9.63078125 3.10546875 10.6640625 C3.07066406 11.43492187 3.03585937 12.20578125 3 13 C2.67 13 2.34 13 2 13 C1.34 8.71 0.68 4.42 0 0 Z " fill="#FAFBF8" transform="translate(319,311)"/>
<path d="M0 0 C0 0.66 0 1.32 0 2 C-4.455 2.495 -4.455 2.495 -9 3 C-9 2.34 -9 1.68 -9 1 C-5.8035914 -0.06546953 -3.34252724 -0.07427838 0 0 Z " fill="#E19650" transform="translate(434,238)"/>
<path d="M0 0 C-4.1795645 2.78637633 -6.14668677 1.79562512 -11 1 C-11 0.67 -11 0.34 -11 0 C-6.98195309 -0.84098656 -3.98196457 -1.05404945 0 0 Z " fill="#F6EBDE" transform="translate(120,300)"/>
<path d="M0 0 C-2.91708924 1.98362069 -4.12380904 1.9876191 -7.75 1.625 C-8.8225 1.41875 -9.895 1.2125 -11 1 C-11 0.67 -11 0.34 -11 0 C-6.98195309 -0.84098656 -3.98196457 -1.05404945 0 0 Z " fill="#E6A568" transform="translate(109,295)"/>
</svg>
